<svg width="96" height="87" viewBox="0 0 96 87" fill="none" xmlns="http://www.w3.org/2000/svg">
<path d="M86.4445 44.7513C78.4756 38.7939 65.9943 33.1597 52.2011 29.2937C39.6423 25.7736 27.3929 24.0741 17.7067 24.5081L17.6562 23.3817C27.4579 22.9427 39.8344 24.6565 52.5055 28.208C66.4273 32.1101 79.0438 37.8107 87.1197 43.8482L86.4445 44.7513Z" fill="#CCCCCC"/>
<path d="M85.6172 49.3401C85.6243 54.6183 84.5177 59.8386 82.3699 64.66C82.1906 65.0637 82.0038 65.4636 81.8095 65.8597C78.0737 73.5114 71.8554 79.6715 64.169 83.3352C56.4826 86.9989 47.7816 87.9501 39.4851 86.0336C31.1887 84.1171 23.7864 79.446 18.4857 72.7821C13.185 66.1183 10.2986 57.8551 10.2974 49.3401C10.2974 48.4685 10.327 47.6037 10.3864 46.7456C10.4146 46.3093 10.4511 45.8756 10.4958 45.4445C11.4945 35.8458 16.1398 26.9967 23.4732 20.7233C30.8065 14.4499 40.2682 11.231 49.9058 11.7308C59.5434 12.2305 68.6214 16.4109 75.2665 23.4092C81.9116 30.4074 85.6167 39.6896 85.6172 49.3401V49.3401Z" fill="#059669"/>
<path opacity="0.1" d="M82.3699 64.6599C82.1906 65.0636 82.0038 65.4635 81.8095 65.8596C80.709 65.9791 79.5506 66.0659 78.3344 66.1201C77.3275 66.1652 76.2913 66.1877 75.2325 66.1877C65.9844 66.1877 54.8544 64.4806 43.4843 61.2942C30.813 57.7424 19.3493 52.7745 11.2039 47.3048C10.9265 47.1187 10.654 46.9323 10.3864 46.7455C10.4146 46.3091 10.4511 45.8754 10.4958 45.4443C10.9277 45.7521 11.373 46.0603 11.8319 46.3689C19.8815 51.7732 31.2302 56.6882 43.7887 60.2084C55.0596 63.3677 66.0848 65.0602 75.2269 65.0602C76.2721 65.0602 77.291 65.038 78.2836 64.9937C79.7292 64.9283 81.0912 64.817 82.3699 64.6599Z" fill="black"/>
<path d="M75.2326 65.2859C65.9848 65.2861 54.8542 63.5788 43.4846 60.3921C30.8134 56.8405 19.3492 51.8724 11.2037 46.4028C2.88827 40.8191 -1.01101 35.3172 0.224103 30.9105C1.45918 26.5039 7.65003 23.83 17.6562 23.3816L17.7066 24.508C13.0339 24.7174 9.22577 25.4119 6.38814 26.5723C3.5574 27.7298 1.84878 29.2918 1.30979 31.2149C0.770798 33.1379 1.4187 35.3604 3.23543 37.8205C5.05661 40.2866 7.94902 42.8592 11.8323 45.4667C19.8809 50.8713 31.23 55.7863 43.7889 59.3064C55.0601 62.4655 66.0843 64.1583 75.2271 64.1585C76.2718 64.1585 77.2905 64.1363 78.2833 64.0919C82.9561 63.8825 86.7642 63.188 89.6019 62.0277C92.4326 60.8702 94.1412 59.3083 94.6802 57.3851C95.648 53.9321 92.7232 49.4452 86.4444 44.7512L87.1196 43.8482C90.3506 46.2637 92.7424 48.6447 94.2284 50.9249C95.8215 53.3695 96.3388 55.6455 95.7659 57.6895C94.5308 62.0961 88.3399 64.7699 78.3338 65.2184C77.327 65.2635 76.2914 65.2859 75.2326 65.2859Z" fill="#CCCCCC"/>
<path d="M48.9534 4.88812C49.1917 4.88812 49.3849 4.69491 49.3849 4.45657C49.3849 4.21823 49.1917 4.02502 48.9534 4.02502C48.7151 4.02502 48.5219 4.21823 48.5219 4.45657C48.5219 4.69491 48.7151 4.88812 48.9534 4.88812Z" fill="#F2F2F2"/>
<path opacity="0.1" d="M48.522 23.0157C50.2698 23.0157 51.6866 21.5989 51.6866 19.8511C51.6866 18.1033 50.2698 16.6864 48.522 16.6864C46.7742 16.6864 45.3573 18.1033 45.3573 19.8511C45.3573 21.5989 46.7742 23.0157 48.522 23.0157Z" fill="black"/>
<path opacity="0.1" d="M24.2115 46.1754C25.9593 46.1754 27.3762 44.7585 27.3762 43.0107C27.3762 41.2629 25.9593 39.8461 24.2115 39.8461C22.4637 39.8461 21.0469 41.2629 21.0469 43.0107C21.0469 44.7585 22.4637 46.1754 24.2115 46.1754Z" fill="black"/>
<path opacity="0.1" d="M59.1667 77.9659C60.9145 77.9659 62.3314 76.5491 62.3314 74.8013C62.3314 73.0535 60.9145 71.6366 59.1667 71.6366C57.4189 71.6366 56.0021 73.0535 56.0021 74.8013C56.0021 76.5491 57.4189 77.9659 59.1667 77.9659Z" fill="black"/>
<path opacity="0.1" d="M48.522 51.0662C50.2698 51.0662 51.6866 49.6493 51.6866 47.9015C51.6866 46.1537 50.2698 44.7368 48.522 44.7368C46.7742 44.7368 45.3573 46.1537 45.3573 47.9015C45.3573 49.6493 46.7742 51.0662 48.522 51.0662Z" fill="black"/>
<path opacity="0.1" d="M25.7939 68.4719C27.5417 68.4719 28.9585 67.055 28.9585 65.3072C28.9585 63.5594 27.5417 62.1426 25.7939 62.1426C24.0461 62.1426 22.6292 63.5594 22.6292 65.3072C22.6292 67.055 24.0461 68.4719 25.7939 68.4719Z" fill="black"/>
<path opacity="0.1" d="M65.4961 34.0922C67.2439 34.0922 68.6608 32.6753 68.6608 30.9275C68.6608 29.1797 67.2439 27.7628 65.4961 27.7628C63.7483 27.7628 62.3314 29.1797 62.3314 30.9275C62.3314 32.6753 63.7483 34.0922 65.4961 34.0922Z" fill="black"/>
<path opacity="0.1" d="M75.9971 55.5255C77.7449 55.5255 79.1617 54.1086 79.1617 52.3608C79.1617 50.613 77.7449 49.1962 75.9971 49.1962C74.2493 49.1962 72.8324 50.613 72.8324 52.3608C72.8324 54.1086 74.2493 55.5255 75.9971 55.5255Z" fill="black"/>
<path d="M48.522 38.2638C50.8259 38.2638 52.6936 36.3961 52.6936 34.0921C52.6936 31.7882 50.8259 29.9205 48.522 29.9205C46.218 29.9205 44.3503 31.7882 44.3503 34.0921C44.3503 36.3961 46.218 38.2638 48.522 38.2638Z" fill="white"/>
<path d="M48.5219 28.0505C46.9577 28.0505 45.4576 28.6719 44.3516 29.778C43.2455 30.884 42.6241 32.3841 42.6241 33.9483C42.6241 37.2056 48.5219 47.9016 48.5219 47.9016C48.5219 47.9016 54.4197 37.2056 54.4197 33.9483C54.4197 32.3841 53.7983 30.884 52.6923 29.778C51.5862 28.6719 50.0861 28.0505 48.5219 28.0505ZM48.5219 36.8253C47.9814 36.8253 47.4529 36.665 47.0035 36.3647C46.554 36.0644 46.2037 35.6375 45.9968 35.1381C45.79 34.6387 45.7359 34.0891 45.8413 33.559C45.9468 33.0288 46.2071 32.5418 46.5893 32.1596C46.9715 31.7773 47.4585 31.517 47.9887 31.4116C48.5189 31.3061 49.0684 31.3602 49.5679 31.5671C50.0673 31.774 50.4941 32.1243 50.7944 32.5737C51.0948 33.0232 51.2551 33.5516 51.2551 34.0922C51.2551 34.4511 51.1844 34.8065 51.047 35.1381C50.9097 35.4697 50.7083 35.771 50.4545 36.0248C50.2008 36.2786 49.8994 36.4799 49.5679 36.6173C49.2363 36.7546 48.8808 36.8253 48.5219 36.8253Z" fill="#CCCCCC"/>
<path d="M25.7939 56.1009C28.0978 56.1009 29.9655 54.2332 29.9655 51.9293C29.9655 49.6254 28.0978 47.7577 25.7939 47.7577C23.49 47.7577 21.6223 49.6254 21.6223 51.9293C21.6223 54.2332 23.49 56.1009 25.7939 56.1009Z" fill="white"/>
<path d="M25.7939 45.8877C24.2297 45.8877 22.7296 46.5091 21.6235 47.6151C20.5175 48.7212 19.8961 50.2213 19.8961 51.7855C19.8961 55.0427 25.7939 65.7388 25.7939 65.7388C25.7939 65.7388 31.6917 55.0427 31.6917 51.7855C31.6917 51.011 31.5391 50.244 31.2427 49.5285C30.9464 48.8129 30.5119 48.1628 29.9643 47.6151C29.4166 47.0675 28.7664 46.633 28.0509 46.3366C27.3353 46.0402 26.5684 45.8877 25.7939 45.8877ZM25.7939 54.6625C25.2533 54.6624 24.7249 54.5022 24.2755 54.2018C23.826 53.9015 23.4757 53.4747 23.2688 52.9752C23.062 52.4758 23.0078 51.9263 23.1133 51.3961C23.2188 50.8659 23.4791 50.3789 23.8613 49.9967C24.2435 49.6145 24.7305 49.3542 25.2607 49.2487C25.7909 49.1433 26.3404 49.1974 26.8398 49.4042C27.3393 49.6111 27.7661 49.9614 28.0664 50.4109C28.3667 50.8603 28.527 51.3888 28.527 51.9293C28.527 52.2883 28.4563 52.6437 28.319 52.9753C28.1816 53.3069 27.9803 53.6081 27.7265 53.8619C27.4727 54.1157 27.1714 54.3171 26.8398 54.4544C26.5082 54.5918 26.1528 54.6625 25.7939 54.6625Z" fill="#CCCCCC"/>
<path d="M75.997 43.1546C78.301 43.1546 80.1687 41.2869 80.1687 38.983C80.1687 36.6791 78.301 34.8114 75.997 34.8114C73.6931 34.8114 71.8254 36.6791 71.8254 38.983C71.8254 41.2869 73.6931 43.1546 75.997 43.1546Z" fill="white"/>
<path d="M75.997 32.9414C75.2225 32.9414 74.4556 33.094 73.74 33.3904C73.0245 33.6867 72.3743 34.1212 71.8267 34.6688C71.279 35.2165 70.8446 35.8667 70.5482 36.5822C70.2518 37.2978 70.0992 38.0647 70.0992 38.8392C70.0992 42.0965 75.997 52.7925 75.997 52.7925C75.997 52.7925 81.8948 42.0965 81.8948 38.8392C81.8948 38.0647 81.7423 37.2978 81.4459 36.5822C81.1495 35.8667 80.7151 35.2165 80.1674 34.6688C79.6197 34.1212 78.9696 33.6867 78.254 33.3904C77.5385 33.094 76.7715 32.9414 75.997 32.9414ZM75.997 41.7162C75.4565 41.7162 74.9281 41.5559 74.4786 41.2556C74.0291 40.9552 73.6788 40.5284 73.472 40.029C73.2651 39.5295 73.211 38.98 73.3164 38.4498C73.4219 37.9197 73.6822 37.4327 74.0644 37.0504C74.4467 36.6682 74.9337 36.4079 75.4638 36.3024C75.994 36.197 76.5436 36.2511 77.043 36.458C77.5424 36.6648 77.9692 37.0151 78.2696 37.4646C78.5699 37.9141 78.7302 38.4425 78.7302 38.983C78.7302 39.342 78.6595 39.6974 78.5221 40.029C78.3848 40.3606 78.1834 40.6619 77.9296 40.9157C77.6758 41.1695 77.3746 41.3708 77.043 41.5081C76.7114 41.6455 76.356 41.7162 75.997 41.7162Z" fill="#CCCCCC"/>
<path d="M48.522 10.2132C50.8259 10.2132 52.6936 8.34552 52.6936 6.04161C52.6936 3.73769 50.8259 1.87 48.522 1.87C46.218 1.87 44.3503 3.73769 44.3503 6.04161C44.3503 8.34552 46.218 10.2132 48.522 10.2132Z" fill="white"/>
<path d="M48.5219 0C46.9577 3.61427e-06 45.4576 0.621374 44.3516 1.72742C43.2455 2.83347 42.6241 4.33359 42.6241 5.89778C42.6241 9.15504 48.5219 19.8511 48.5219 19.8511C48.5219 19.8511 54.4197 9.15504 54.4197 5.89778C54.4197 4.33359 53.7983 2.83347 52.6923 1.72742C51.5862 0.621369 50.0861 0 48.5219 0ZM48.5219 8.77476C47.9814 8.77476 47.4529 8.61446 47.0035 8.31414C46.554 8.01382 46.2037 7.58696 45.9968 7.08755C45.79 6.58814 45.7359 6.0386 45.8413 5.50842C45.9468 4.97825 46.2071 4.49125 46.5893 4.10901C46.9715 3.72678 47.4585 3.46648 47.9887 3.36102C48.5189 3.25556 49.0684 3.30969 49.5679 3.51655C50.0673 3.72342 50.4941 4.07373 50.7944 4.52319C51.0948 4.97265 51.2551 5.50107 51.2551 6.04163C51.2551 6.40055 51.1844 6.75596 51.047 7.08756C50.9097 7.41916 50.7083 7.72046 50.4545 7.97425C50.2008 8.22805 49.8994 8.42937 49.5679 8.56672C49.2363 8.70407 48.8808 8.77476 48.5219 8.77476Z" fill="#CCCCCC"/>
<path d="M59.1667 65.5949C61.4706 65.5949 63.3383 63.7272 63.3383 61.4233C63.3383 59.1194 61.4706 57.2517 59.1667 57.2517C56.8628 57.2517 54.9951 59.1194 54.9951 61.4233C54.9951 63.7272 56.8628 65.5949 59.1667 65.5949Z" fill="white"/>
<path d="M59.1668 55.3816C57.6026 55.3816 56.1025 56.003 54.9965 57.109C53.8904 58.2151 53.269 59.7152 53.269 61.2794C53.269 64.5366 59.1668 75.2327 59.1668 75.2327C59.1668 75.2327 65.0646 64.5366 65.0646 61.2794C65.0646 60.5049 64.912 59.7379 64.6157 59.0224C64.3193 58.3068 63.8848 57.6567 63.3372 57.109C62.7895 56.5613 62.1394 56.1269 61.4238 55.8305C60.7082 55.5341 59.9413 55.3816 59.1668 55.3816ZM59.1668 64.1564C58.6263 64.1564 58.0978 63.9961 57.6484 63.6957C57.1989 63.3954 56.8486 62.9686 56.6417 62.4691C56.4349 61.9697 56.3808 61.4202 56.4862 60.89C56.5917 60.3598 56.852 59.8728 57.2342 59.4906C57.6165 59.1084 58.1034 58.8481 58.6336 58.7426C59.1638 58.6372 59.7133 58.6913 60.2127 58.8981C60.7122 59.105 61.139 59.4553 61.4393 59.9048C61.7397 60.3542 61.9 60.8827 61.9 61.4232C61.9 61.7821 61.8293 62.1376 61.6919 62.4692C61.5546 62.8007 61.3532 63.102 61.0994 63.3558C60.8456 63.6096 60.5443 63.811 60.2127 63.9483C59.8811 64.0857 59.5257 64.1564 59.1668 64.1564Z" fill="#3F3D56"/>
<path d="M24.2115 33.5167C26.5155 33.5167 28.3831 31.649 28.3831 29.3451C28.3831 27.0412 26.5155 25.1735 24.2115 25.1735C21.9076 25.1735 20.0399 27.0412 20.0399 29.3451C20.0399 31.649 21.9076 33.5167 24.2115 33.5167Z" fill="white"/>
<path d="M24.2115 23.3035C22.6473 23.3035 21.1472 23.9248 20.0411 25.0309C18.9351 26.1369 18.3137 27.6371 18.3137 29.2012C18.3137 32.4585 24.2115 43.1546 24.2115 43.1546C24.2115 43.1546 30.1093 32.4585 30.1093 29.2012C30.1093 27.6371 29.4879 26.1369 28.3819 25.0309C27.2758 23.9248 25.7757 23.3035 24.2115 23.3035ZM24.2115 32.0782C23.6709 32.0782 23.1425 31.9179 22.6931 31.6176C22.2436 31.3173 21.8933 30.8904 21.6864 30.391C21.4796 29.8916 21.4254 29.3421 21.5309 28.8119C21.6364 28.2817 21.8967 27.7947 22.2789 27.4125C22.6611 27.0303 23.1481 26.7699 23.6783 26.6645C24.2085 26.559 24.758 26.6132 25.2574 26.82C25.7568 27.0269 26.1837 27.3772 26.484 27.8267C26.7843 28.2761 26.9446 28.8045 26.9446 29.3451C26.9446 29.704 26.8739 30.0594 26.7366 30.391C26.5992 30.7226 26.3979 31.0239 26.1441 31.2777C25.8903 31.5315 25.589 31.7328 25.2574 31.8702C24.9258 32.0075 24.5704 32.0782 24.2115 32.0782Z" fill="#3F3D56"/>
<path d="M65.4961 21.8651C67.8 21.8651 69.6677 19.9974 69.6677 17.6935C69.6677 15.3895 67.8 13.5219 65.4961 13.5219C63.1922 13.5219 61.3245 15.3895 61.3245 17.6935C61.3245 19.9974 63.1922 21.8651 65.4961 21.8651Z" fill="white"/>
<path d="M65.496 11.6517C63.9319 11.6517 62.4317 12.2731 61.3257 13.3792C60.2196 14.4852 59.5983 15.9853 59.5983 17.5495C59.5983 20.8068 65.496 31.5028 65.496 31.5028C65.496 31.5028 71.3938 20.8068 71.3938 17.5495C71.3938 15.9853 70.7725 14.4852 69.6664 13.3792C68.5604 12.2731 67.0602 11.6517 65.496 11.6517ZM65.496 20.4265C64.9555 20.4265 64.4271 20.2662 63.9776 19.9659C63.5281 19.6656 63.1778 19.2387 62.971 18.7393C62.7641 18.2399 62.71 17.6903 62.8154 17.1602C62.9209 16.63 63.1812 16.143 63.5634 15.7608C63.9457 15.3785 64.4327 15.1182 64.9628 15.0128C65.493 14.9073 66.0426 14.9614 66.542 15.1683C67.0414 15.3751 67.4682 15.7255 67.7686 16.1749C68.0689 16.6244 68.2292 17.1528 68.2292 17.6934C68.2292 18.4182 67.9412 19.1134 67.4287 19.626C66.9161 20.1385 66.2209 20.4265 65.496 20.4265V20.4265Z" fill="#3F3D56"/>
</svg>
